{"title":"The Punisher Dirty Laundry 2012 Web-DL 720P x264 MP4 - Ofek","uid":10161992,"size":156571673,"categoryP":"video","categoryS":"hd___movies","magnet":"?xt=urn:btih:7827000f53d062ceee8448dba7108cd0dc66ce3a&amp;dn=The+Punisher+Dirty+Laundry+2012+Web-DL+720P+x264+MP4+-+Ofek&amp;tr=udp%3A%2F%2Ftracker.openbittorrent.com%3A80&amp;tr=udp%3A%2F%2Fopen.demonii.com%3A1337&amp;tr=udp%3A%2F%2Ftracker.coppersurfer.tk%3A6969&amp;tr=udp%3A%2F%2Fexodus.desync.com%3A6969","seeders":12,"leechers":0,"uploader":"realOfek","files":2,"time":1400308570,"description":"Please leave feedback!\n\nGeneral\nFormat : MPEG-4\nFormat profile : Base Media\nCodec ID : isom\nFile size : 149 MiB\nDuration : 10mn 14s\nOverall bit rate mode : Variable\nOverall bit rate : 2 037 Kbps\nEncoded date : UTC 2014-05-15 03:47:47\nTagged date : UTC 2014-05-15 03:47:47\n\nVideo\nID : 1\nFormat : AVC\nFormat/Info : Advanced Video Codec\nFormat profile : &lt;a class=&quot;__cf_email__&quot; href=&quot;/cdn-cgi/l/email-protection&quot; data-cfemail=&quot;97dffef0ffd7dba4b9a6&quot;&gt;[email&amp;#160;protected]&lt;/a&gt;&lt;script cf-hash='f9e31' type=&quot;text/javascript&quot;&gt;\n/* &lt;![CDATA[ */!function(){try{var t=&quot;currentScript&quot;in document?document.currentScript:function(){for(var t=document.getElementsByTagName(&quot;script&quot;),e=t.length;e--;)if(t[e].getAttribute(&quot;cf-hash&quot;))return t[e]}();if(t&amp;&amp;t.previousSibling){var e,r,n,i,c=t.previousSibling,a=c.getAttribute(&quot;data-cfemail&quot;);if(a){for(e=&quot;&quot;,r=parseInt(a.substr(0,2),16),n=2;a.length-n;n+=2)i=parseInt(a.substr(n,2),16)^r,e+=String.fromCharCode(i);e=document.createTextNode(e),c.parentNode.replaceChild(e,c)}}}catch(u){}}();/* ]]&gt; */&lt;/script&gt;\nFormat settings, CABAC : Yes\nFormat settings, ReFrames : 4 frames\nCodec ID : avc1\nCodec ID/Info : Advanced Video Coding\nDuration : 10mn 14s\nBit rate : 1 841 Kbps\nMaximum bit rate : 4 108 Kbps\nWidth : 1 200 pixels\nHeight : 400 pixels\nDisplay aspect ratio : 3.000\nFrame rate mode : Constant\nFrame rate : 23.976 fps\nColor space : YUV\nChroma subsampling : 4:2:0\nBit depth : 8 bits\nScan type : Progressive\nBits/(Pixel*Frame) : 0.160\nStream size : 135 MiB (90%)\nTitle : 1.h264 - Imported with GPAC 0.5.0-rev4065\nWriting library : x264 core 142 r2431 ac76440\nEncoding settings : cabac=1 / ref=4 / deblock=1:-1:-1 / analyse=0x3:0x133 / me=umh / subme=10 / psy=1 / psy_rd=1.00:0.15 / mixed_ref=1 / me_range=24 / chroma_me=1 / trellis=2 / 8x8dct=1 / cqm=0 / deadzone=21,11 / fast_pskip=1 / chroma_qp_offset=-3 / threads=12 / lookahead_threads=1 / sliced_threads=0 / nr=0 / decimate=1 / interlaced=0 / bluray_compat=0 / constrained_intra=0 / bframes=3 / b_pyramid=2 / b_adapt=2 / b_bias=0 / direct=3 / weightb=1 / open_gop=0 / weightp=2 / keyint=250 / keyint_min=23 / scenecut=40 / intra_refresh=0 / rc_lookahead=60 / rc=crf / mbtree=1 / crf=15.0 / qcomp=0.60 / qpmin=0 / qpmax=69 / qpstep=4 / ip_ratio=1.40 / aq=1:1.00\nLanguage : English\nEncoded date : UTC 2014-05-15 03:47:47\nTagged date : UTC 2014-05-15 03:47:50\n\nAudio\nID : 2\nFormat : AAC\nFormat/Info : Advanced Audio Codec\nFormat profile : LC\nCodec ID : 40\nDuration : 10mn 14s\nBit rate mode : Variable\nBit rate : 192 Kbps\nMaximum bit rate : 201 Kbps\nChannel(s) : 2 channels\nChannel positions : Front: L R\nSampling rate : 44.1 KHz\nCompression mode : Lossy\nStream size : 14.1 MiB (9%)\nTitle : 2.aac - Imported with GPAC 0.5.0-rev4065\nLanguage : English\nEncoded date : UTC 2014-05-15 03:47:49\nTagged date : UTC 2014-05-15 03:47:50\n\nEnjoy! ","torrent":{"xt":"urn:btih:7827000f53d062ceee8448dba7108cd0dc66ce3a","amp;dn":"The+Punisher+Dirty+Laundry+2012+Web-DL+720P+x264+MP4+-+Ofek","amp;tr":["udp%3A%2F%2Ftracker.openbittorrent.com%3A80","udp%3A%2F%2Fopen.demonii.com%3A1337","udp%3A%2F%2Ftracker.coppersurfer.tk%3A6969","udp%3A%2F%2Fexodus.desync.com%3A6969"],"infoHash":"7827000f53d062ceee8448dba7108cd0dc66ce3a","infoHashBuffer":{"type":"Buffer","data":[120,39,0,15,83,208,98,206,238,132,72,219,167,16,140,208,220,102,206,58]},"announce":[],"urlList":[]}}